PathFileType	4	(X/Y/Z)	KinectSkeleton.trc																																																	
DataRate	CameraRate	NumFrames	NumMarkers	Units	OrigDataRate	OrigDataStartFrame	OrigNumFrames																																													
60	60	15	17	mm	60	62	300																																													
Frame#	Time	Neck			ShoulderMid			R.Shoulder			L.Shoulder			R.Elbow			L.Elbow			R.Wrist			L.Wrist			HipCenter			R.Hip			L.Hip			R.Knee			L.Knee			R.Ankle			L.Ankle			R.Foot			L.Foot		
		X1	Y1	Z1	X2	Y2	Z2	X3	Y3	Z3	X4	Y4	Z4	X5	Y5	Z5	X6	Y6	Z6	X7	Y7	Z7	X8	Y8	Z8	X9	Y9	Z9	X10	Y10	Z10	X11	Y11	Z11	X12	Y12	Z12	X13	Y13	Z13	X14	Y14	Z14	X15	Y15	Z15	X16	Y16	Z16	X17	Y17	Z17
																																																				
62	3.721	-2550.93	1552.952	597.232	-2550.93	1552.952	597.232	-2658.913	1533.788	742.146	-2466.705	1445.854	455.104	-2848.181	1388.357	920.4	-2377.667	1172.753	400.608	-2627.779	1388.089	1035.177	-2195.743	1036.736	493.454	-2607.194	991.956	675.69	-2619.431	1003.78	761.002	-2593.623	978.844	581.082	-2512.776	598.81	821.333	-2561.46	556.895	599.151	-2661.788	218.507	843.397	-2629.188	158.659	625.175	-2556.401	73.612	877.373	-2476.537	32.403	618.592
63	3.767	-2545.257	1554.35	614.563	-2545.257	1554.35	614.563	-2642.859	1539.456	766.639	-2475.198	1446.088	464.762	-2730.687	1424.15	1027.912	-2429.874	1158.489	429.819	-2499.099	1461.608	1112.058	-2272.531	982.939	500.521	-2596.922	991.206	692.199	-2608.656	1002.279	777.944	-2583.91	978.927	597.111	-2505.669	597.877	854.943	-2562.857	555.27	620.262	-2651.326	214.379	849.803	-2664.132	162.878	644.723	-2533.744	88.638	911.577	-2507.245	41.012	637.386
64	3.813	-2547.464	1553.233	608.096	-2547.464	1553.233	608.096	-2643.889	1544.175	761.721	-2477.64	1440.104	460.667	-2726.563	1453.851	1035.548	-2450.538	1148.811	427.828	-2494.106	1506.073	1111.979	-2313.598	953.176	491.266	-2593.058	989.236	697.389	-2605.534	1001.267	783.249	-2579.223	975.893	602.173	-2507.391	598.945	883.235	-2562.18	550.898	633.349	-2654.291	214.267	874.329	-2663.331	157.262	664.044	-2537.855	88.038	939.324	-2504.185	37.071	656.549
65	3.857	-2548.591	1551.919	610.547	-2548.591	1551.919	610.547	-2636.207	1545.221	769.795	-2487.231	1435.656	460.754	-2684.351	1513.248	1064.997	-2482.666	1141.202	439.975	-2445.676	1580.134	1103.993	-2364.141	931.321	497.4	-2589.285	986.766	703.185	-2600.907	998.604	789.444	-2576.396	973.638	607.526	-2512.475	588.155	868.385	-2565.388	547.251	638.947	-2660.081	202.435	873.921	-2666.383	152.532	671.522	-2537.709	79.794	936.296	-2503.518	36.475	679.314
66	3.906	-2535.176	1546.335	623.324	-2535.176	1546.335	623.324	-2599.358	1534.184	795.823	-2497.717	1428.794	465.653	-2549.435	1528.573	1094.038	-2525.519	1133.596	452.38	-2321.938	1637.38	1100.487	-2426.774	909.079	495.932	-2577.668	978.966	719.721	-2587.395	991.125	806.647	-2566.88	965.482	623.323	-2495.975	585.298	913.543	-2560.927	536.002	643.046	-2597.695	185.7	962.567	-2700.552	151.048	677.287	-2470.013	84.312	1050.251	-2557.08	10.022	680.837
67	3.953	-2536.197	1548.943	630.348	-2536.197	1548.943	630.348	-2609.168	1535.085	802.138	-2500.763	1428.764	470.68	-2605.385	1548.412	1108.433	-2548.559	1131.853	460.24	-2387.733	1672.733	1159.268	-2465.978	897.103	503.364	-2573.951	973.685	728.921	-2584.205	985.822	817.034	-2562.581	960.225	631.207	-2507.365	572.431	930.316	-2569.419	524.721	649.313	-2602.218	165.695	983.33	-2703.25	131.136	676.693	-2462.49	74.295	1069.057	-2538.817	10.712	668.049
68	3.998	-2517.543	1541.223	645.387	-2517.543	1541.223	645.387	-2546.091	1534.652	826.948	-2520.872	1422.569	484.05	-2543.517	1515.601	1128.846	-2592.444	1135.236	505.546	-2351.504	1677.662	1152.12	-2516.032	900.135	536.875	-2559.706	976.27	755.96	-2562.246	990.921	843.037	-2556.89	960.023	659.395	-2541.35	576.28	953.624	-2579.881	530.592	666.538	-2583.02	173.998	1048.315	-2699.485	138.843	700.998	-2446.992	66.979	1114.151	-2571.063	-15.081	682.964
69	4.044	-2515.115	1542.716	654.284	-2515.115	1542.716	654.284	-2530.784	1536.351	838.008	-2526.025	1424.742	491.675	-2489.762	1530.046	1139.064	-2610.232	1139.457	513.593	-2296.292	1693.757	1144.595	-2543.277	899.806	540.983	-2556.803	974.584	762.471	-2558.641	988.775	850.054	-2554.766	958.847	665.345	-2530.81	577.545	978.164	-2574.086	527.703	686.327	-2606.278	178.861	1075.541	-2712.706	141.176	729.939	-2459.482	72.914	1118.368	-2564.365	3.969	722.674
70	4.089	-2509.553	1533.305	651.657	-2509.553	1533.305	651.657	-2516.194	1521.633	833.135	-2521.389	1413.75	494.289	-2471.346	1525.14	1127.835	-2632.517	1143.518	509.369	-2278.559	1682.21	1128.15	-2565.593	908.3	531.627	-2545.702	976.147	761.239	-2546.179	990.813	847.047	-2545.174	959.883	666.081	-2462.229	592.56	963.729	-2548.024	537.206	697.553	-2441.29	197.163	1067.556	-2634.752	143.989	741.657	-2277.981	124.008	1103.344	-2475.038	26.678	733.259
71	4.138	-2498.941	1535.649	597.494	-2498.941	1535.649	597.494	-2490.569	1515.517	780.219	-2508.198	1408.584	445.322	-2431.069	1532.902	1071.709	-2660.485	1158.977	452.134	-2221.462	1666.454	1066.899	-2597.856	922.747	475.201	-2529.591	979.808	714.288	-2529.826	995.071	799.962	-2529.331	962.881	619.28	-2453.265	592.624	906.337	-2513.062	539.588	628.544	-2485.993	196.032	1001.637	-2616.829	151.452	679.066	-2326.492	109.94	1022.274	-2464.681	26.405	656.096
72	4.184	-2495.798	1535.349	574.962	-2495.798	1535.349	574.962	-2479.159	1516.544	758.115	-2510.061	1406.875	423.329	-2406.634	1527.421	1048.286	-2670.279	1161.116	437.978	-2197.09	1662.993	1054.635	-2599.542	925.934	459.57	-2520.886	978.321	697.875	-2520.508	994.528	783.757	-2521.306	960.349	602.635	-2463.547	591.887	907.557	-2494.206	535.678	603.764	-2555.539	205.212	1011.996	-2597.307	146.311	659.907	-2393.664	120.189	1023.577	-2425.229	48.13	639.828
73	4.232	-2484.545	1531.181	549.723	-2484.545	1531.181	549.723	-2460.802	1515.806	724.537	-2511.073	1408.604	402.909	-2393.999	1517.842	1005.921	-2671.171	1174.848	420.044	-2198.208	1653.646	1043.654	-2628.988	940.404	423.308	-2505.98	986.609	632.91	-2505.789	994.895	716.956	-2506.193	977.421	539.705	-2397.649	598.647	720.959	-2439.135	572.566	565.821	-2576.002	252.445	798.646	-2540.508	198.46	630.649	-2469.625	113.054	823.083	-2400.491	67.043	642.976
74	4.278	-2477.735	1533.881	542.941	-2477.735	1533.881	542.941	-2445.863	1512.596	717.572	-2521.383	1413.72	396.163	-2371.815	1492.613	998.802	-2687.273	1181.403	415.024	-2165.63	1614.861	1039.642	-2656.153	943.725	400.992	-2494.849	983.15	614.436	-2493.079	989.636	699.293	-2496.812	975.958	520.333	-2398.242	593.253	626.568	-2392.716	574.894	529.502	-2601.398	256.796	702.263	-2503.586	199.197	588.212	-2500.509	109.823	710.096	-2360.276	68.592	592.629
75	4.321	-2471.573	1532.276	547.368	-2471.573	1532.276	547.368	-2424.128	1513.893	719.205	-2523.044	1419.029	397.933	-2371.841	1482.655	1005.712	-2683.991	1182.492	425.963	-2156.548	1597.524	1018.005	-2664.222	942.323	414.042	-2489.531	982.896	648.648	-2465.203	994.692	729.796	-2516.51	969.814	558.657	-2373.45	589.387	710.517	-2515.298	555.554	601.349	-2552.523	239.433	795.501	-2581.855	168.736	667.297	-2448.511	94.66	776.214	-2429.236	60.767	612.257
76	4.366	-2466.386	1535.208	548.988	-2466.386	1535.208	548.988	-2415.672	1514.298	721.712	-2517.984	1419.123	399.34	-2339.62	1459.41	1001.861	-2677.639	1178.224	422.727	-2124.637	1573.831	1039.546	-2692.312	935.427	415.277	-2470.282	980.389	648.807	-2443.183	992.379	729.828	-2500.334	967.091	558.957	-2418.023	582.99	818.281	-2525.448	551.162	611.949	-2518.378	204.578	924.528	-2576.178	158.258	676.754	-2378.607	90.024	931.398	-2420.933	46.107	632.509
